<svg width="45" height="45" viewBox="0 0 45 45" fill="none" xmlns="http://www.w3.org/2000/svg">
<path d="M42.3049 22.5L27.5393 9.84375H20.5081V16.1719H2.92993V28.8281H20.5081V35.1562H27.5393L42.3049 22.5Z" fill="#DB11C7"/>
<path d="M27.5393 35.5079H20.5081C20.314 35.5079 20.1565 35.3504 20.1565 35.1563V29.1798H2.92993C2.73587 29.1798 2.57837 29.0223 2.57837 28.8282V16.172C2.57837 15.9779 2.73587 15.8204 2.92993 15.8204H20.1565V9.84384C20.1565 9.64978 20.314 9.49228 20.5081 9.49228H27.5393C27.623 9.49228 27.7038 9.52181 27.7678 9.57736L42.5334 22.2336C42.6115 22.3004 42.6565 22.3974 42.6565 22.5001C42.6565 22.6027 42.6122 22.7005 42.5334 22.7666L27.7678 35.4228C27.7038 35.4784 27.623 35.5079 27.5393 35.5079ZM20.8596 34.8048H27.4099L41.7642 22.5001L27.4092 10.1954H20.8589V16.172C20.8589 16.366 20.7014 16.5235 20.5074 16.5235H3.28079V28.4767H20.5074C20.7014 28.4767 20.8589 28.6342 20.8589 28.8282V34.8048H20.8596Z" fill="#212A41"/>
<path d="M42.3049 22.5L27.5393 9.84375V16.1719H9.96118V28.8281H27.5393V35.1562L42.3049 22.5Z" fill="#E92FF9"/>
<path d="M27.5393 35.5078C27.4894 35.5078 27.4388 35.4973 27.3924 35.4755C27.2672 35.4178 27.1877 35.2934 27.1877 35.1562V29.1797H9.96118C9.76712 29.1797 9.60962 29.0222 9.60962 28.8281V16.1719C9.60962 15.9778 9.76712 15.8203 9.96118 15.8203H27.1877V9.84375C27.1877 9.70664 27.2672 9.58148 27.3924 9.52453C27.5154 9.46687 27.6638 9.48656 27.7678 9.57726L42.5334 22.2335C42.6115 22.3003 42.6565 22.3973 42.6565 22.5C42.6565 22.6027 42.6122 22.7004 42.5334 22.7665L27.7678 35.4227C27.7031 35.479 27.6216 35.5078 27.5393 35.5078ZM10.3127 28.4766H27.5393C27.7334 28.4766 27.8909 28.6341 27.8909 28.8281V34.392L41.7642 22.5L27.8909 10.608V16.1719C27.8909 16.3659 27.7334 16.5234 27.5393 16.5234H10.3127V28.4766Z" fill="#212A41"/>
<path d="M28.9456 32.4499C28.8464 32.4499 28.748 32.4077 28.6784 32.3269C28.5518 32.1792 28.5694 31.9577 28.7171 31.8312L39.638 22.5L28.7171 13.1688C28.5694 13.0423 28.5525 12.8208 28.6784 12.6731C28.8049 12.5255 29.0264 12.5093 29.1741 12.6338L40.4079 22.2328C40.4853 22.2996 40.531 22.3973 40.531 22.5C40.531 22.6027 40.486 22.7004 40.4079 22.7672L29.1741 32.3663C29.1073 32.4225 29.0264 32.4499 28.9456 32.4499Z" fill="#DB11C7"/>
<path d="M11.3674 27.7734C11.1734 27.7734 11.0159 27.6159 11.0159 27.4219V17.5781C11.0159 17.3841 11.1734 17.2266 11.3674 17.2266C11.5615 17.2266 11.719 17.3841 11.719 17.5781V27.4219C11.719 27.6159 11.5615 27.7734 11.3674 27.7734Z" fill="#FB4DFF"/>
<path d="M4.33618 27.7734C4.14212 27.7734 3.98462 27.6159 3.98462 27.4219V17.5781C3.98462 17.3841 4.14212 17.2266 4.33618 17.2266C4.53024 17.2266 4.68774 17.3841 4.68774 17.5781V27.4219C4.68774 27.6159 4.53024 27.7734 4.33618 27.7734Z" fill="#E92FF9"/>
<path d="M21.9143 15.1172C21.7202 15.1172 21.5627 14.9597 21.5627 14.7656V11.25C21.5627 11.0559 21.7202 10.8984 21.9143 10.8984C22.1084 10.8984 22.2659 11.0559 22.2659 11.25V14.7656C22.2659 14.9597 22.1084 15.1172 21.9143 15.1172Z" fill="#E92FF9"/>
<path d="M21.9143 34.1016C21.7202 34.1016 21.5627 33.9441 21.5627 33.75V30.2344C21.5627 30.0403 21.7202 29.8828 21.9143 29.8828C22.1084 29.8828 22.2659 30.0403 22.2659 30.2344V33.75C22.2659 33.9441 22.1084 34.1016 21.9143 34.1016Z" fill="#E92FF9"/>
</svg>
